<?xml version="1.0" encoding="utf-8"?>
<!-- Generator: Adobe Illustrator 15.1.0, SVG Export Plug-In . SVG Version: 6.00 Build 0)  -->
<!DOCTYPE svg PUBLIC "-//W3C//DTD SVG 1.1//EN" "http://www.w3.org/Graphics/SVG/1.1/DTD/svg11.dtd">
<svg version="1.1" id="Layer_1" xmlns="http://www.w3.org/2000/svg" xmlns:xlink="http://www.w3.org/1999/xlink" x="0px" y="0px"
	 width="239px" height="209px" viewBox="0 0 239 209" enable-background="new 0 0 239 209" xml:space="preserve">
<g>
	<g>
		<path fill="none" stroke="#FFFFFF" stroke-miterlimit="10" d="M-111.328,153.248"/>
	</g>
</g>
<g id="XMLID_1_">
	<g>
		<polygon fill="#00BFD3" points="217.66,25.24 221.15,142.27 195.5,156 195.5,155.16 195.5,80 174.19,121 148.33,95.89 
			148.32,113.07 148.3,138.9 148.28,180.23 118,196 117.5,196 117.5,46 117.53,45.89 118,46 153.8,38.54 174.19,61.57 190.11,30.98 
					"/>
		<polygon fill="#00BFD3" points="217.66,25.24 190.11,30.98 117.5,18.26 140.89,14.74 		"/>
		<polygon fill="#008187" points="195.5,80 195.5,155.16 148.33,138.9 148.3,138.9 148.32,113.07 148.33,113.07 174.19,121 		"/>
		<polygon fill="#008187" points="190.11,30.98 174.19,61.57 153.8,38.54 111.37,29.95 117.5,18.26 		"/>
		<polygon fill="#008187" points="174.19,121 148.33,113.07 148.32,113.07 148.33,95.89 		"/>
		<polygon fill="#00BFD3" points="153.8,38.54 118,46 117.53,45.89 46.1,29 82.05,24.02 111.37,29.95 		"/>
		<path fill="#6CF5FF" d="M87.24,70.37h-0.01l-11.65-3.55l-17.21-5.26l-6.36,24.81l-0.07,0.27L52.02,87c11.83,4,23.65,8,35.48,12
			c-0.04-4.55-0.08-9.1-0.12-13.65C87.33,80.36,87.29,75.37,87.24,70.37z M117.53,45.89L117.5,46v150l-30.25-15.77L87.5,125
			l-20.26-8.1l-21.14-8.46l-10.58,43.48l-18.63-9.65L46.1,29L117.53,45.89z"/>
		<path fill="#00BFD3" d="M87.38,85.35c0.04,4.55,0.08,9.1,0.12,13.65c-11.83-4-23.65-8-35.48-12l-0.08-0.36l0.07-0.27
			c6.96-1.79,13.9-3.58,20.86-5.37l0.02-0.1l14.25,4.45H87.38z"/>
		<path fill="#00BFD3" d="M72.89,80.9L72.87,81c-6.96,1.79-13.9,3.58-20.86,5.37l6.36-24.81l17.21,5.26L72.89,80.9z"/>
		<polygon fill="#00BFD3" points="46.1,108.44 67.24,116.9 66.8,118 60.26,142.27 35.52,151.92 		"/>
	</g>
	<g>
		<polyline fill="none" stroke="#000000" stroke-miterlimit="10" points="118,46 117.53,45.89 46.1,29 		"/>
		<line fill="none" stroke="#000000" stroke-miterlimit="10" x1="46.1" y1="29" x2="16.89" y2="142.27"/>
		<line fill="none" stroke="#000000" stroke-miterlimit="10" x1="217.66" y1="25.24" x2="221.15" y2="142.27"/>
		<line fill="none" stroke="#000000" stroke-miterlimit="10" x1="117.5" y1="46" x2="117.5" y2="196"/>
		<polyline fill="none" stroke="#000000" stroke-miterlimit="10" points="148.33,95.89 148.32,113.07 148.3,138.9 148.28,180.23 		
			"/>
		<line fill="none" stroke="#000000" stroke-miterlimit="10" x1="148.28" y1="180.23" x2="118" y2="196"/>
		<polyline fill="none" stroke="#000000" stroke-miterlimit="10" points="195.5,80 195.5,155.16 195.5,156 		"/>
		<line fill="none" stroke="#000000" stroke-miterlimit="10" x1="195.5" y1="156" x2="221.15" y2="142.27"/>
		<line fill="none" stroke="#000000" stroke-miterlimit="10" x1="148.33" y1="95.89" x2="174.19" y2="121"/>
		<line fill="none" stroke="#000000" stroke-miterlimit="10" x1="195.5" y1="80" x2="174.19" y2="121"/>
		<line fill="none" stroke="#000000" stroke-miterlimit="10" x1="117.5" y1="196" x2="87.25" y2="180.23"/>
		<line fill="none" stroke="#000000" stroke-miterlimit="10" x1="16.89" y1="142.27" x2="35.52" y2="151.92"/>
		<polyline fill="none" stroke="#000000" stroke-miterlimit="10" points="58.33,61.55 58.37,61.56 75.58,66.82 87.23,70.37 		"/>
		<polyline fill="none" stroke="#000000" stroke-miterlimit="10" points="58.48,61.14 58.37,61.56 52.01,86.37 51.94,86.64 		"/>
		<path fill="none" stroke="#000000" stroke-miterlimit="10" d="M52.02,87c11.83,4,23.65,8,35.48,12"/>
		<line fill="none" stroke="#000000" stroke-miterlimit="10" x1="35.52" y1="151.92" x2="46.1" y2="108.44"/>
		<polyline fill="none" stroke="#000000" stroke-miterlimit="10" points="87.5,125 67.24,116.9 46.1,108.44 		"/>
		<line fill="none" stroke="#000000" stroke-miterlimit="10" x1="82.05" y1="24.02" x2="46.1" y2="29"/>
		<line fill="none" stroke="#000000" stroke-miterlimit="10" x1="190.11" y1="30.98" x2="117.5" y2="18.26"/>
		<line fill="none" stroke="#000000" stroke-miterlimit="10" x1="217.66" y1="25.24" x2="140.89" y2="14.74"/>
		<line fill="none" stroke="#000000" stroke-miterlimit="10" x1="140.89" y1="14.74" x2="117.5" y2="18.26"/>
		<path fill="none" stroke="#000000" stroke-miterlimit="10" d="M52,86.37h0.01c6.96-1.79,13.9-3.58,20.86-5.37"/>
		<line fill="none" stroke="#000000" stroke-miterlimit="10" x1="174.19" y1="61.57" x2="153.8" y2="38.54"/>
		<line fill="none" stroke="#000000" stroke-miterlimit="10" x1="174.19" y1="61.57" x2="190.11" y2="30.98"/>
		<line fill="none" stroke="#000000" stroke-miterlimit="10" x1="153.8" y1="38.54" x2="118" y2="46"/>
		<polyline fill="none" stroke="#000000" stroke-miterlimit="10" points="153.8,38.54 111.37,29.95 82.05,24.02 		"/>
		<line fill="none" stroke="#000000" stroke-miterlimit="10" x1="174.19" y1="121" x2="148.33" y2="113.07"/>
		<line fill="none" stroke="#000000" stroke-miterlimit="10" x1="195.5" y1="155.16" x2="148.33" y2="138.9"/>
		<line fill="none" stroke="#000000" stroke-miterlimit="10" x1="217.66" y1="25.24" x2="190.11" y2="30.98"/>
		<line fill="none" stroke="#000000" stroke-miterlimit="10" x1="35.52" y1="151.92" x2="60.26" y2="142.27"/>
		<line fill="none" stroke="#000000" stroke-miterlimit="10" x1="60.26" y1="142.27" x2="66.8" y2="118"/>
		<path fill="none" stroke="#000000" stroke-miterlimit="10" d="M87.5,99c-0.04-4.55-0.08-9.1-0.12-13.65
			c-0.05-4.99-0.09-9.98-0.14-14.98c0-0.05,0-0.11,0-0.16"/>
		<line fill="none" stroke="#000000" stroke-miterlimit="10" x1="87.25" y1="180.23" x2="87.5" y2="125"/>
		<polyline fill="none" stroke="#000000" stroke-miterlimit="10" points="72.87,80.89 72.89,80.9 87.14,85.35 		"/>
		<line fill="none" stroke="#000000" stroke-miterlimit="10" x1="117.5" y1="18.26" x2="111.37" y2="29.95"/>
		<polyline fill="none" stroke="#000000" stroke-miterlimit="10" points="72.87,81 72.89,80.9 75.58,66.82 		"/>
	</g>
</g>
</svg>
